<svg width="24" height="24" viewBox="0 0 24 24" fill="none" xmlns="http://www.w3.org/2000/svg">
<path fill-rule="evenodd" clip-rule="evenodd" d="M16.4221 2.0332C17.0746 2.0332 17.7001 2.29375 18.157 2.7542L21.2475 5.84468C21.7076 6.30481 21.9661 6.92888 21.9661 7.5796C21.9661 8.23032 21.7076 8.85438 21.2475 9.31451L9.96399 20.5944C9.26785 21.3975 8.28105 21.8908 7.15056 21.9684H2.0332V20.9717L2.03644 16.7709C2.12134 15.7199 2.60993 14.7427 3.35525 14.086L14.686 2.7554C15.1454 2.29316 15.7703 2.0332 16.4221 2.0332ZM7.08018 19.9776C7.61261 19.9399 8.10822 19.6921 8.50619 19.2369L16.0427 11.7003L12.3009 7.95844L4.72025 15.5373C4.31646 15.8944 4.06666 16.3941 4.02649 16.8511V19.9757L7.08018 19.9776ZM13.7106 6.54914L17.4522 10.2909L19.838 7.90504C19.9243 7.81873 19.9728 7.70166 19.9728 7.5796C19.9728 7.45753 19.9243 7.34046 19.838 7.25415L16.7448 4.16089C16.6594 4.07487 16.5433 4.02649 16.4221 4.02649C16.3009 4.02649 16.1847 4.07487 16.0994 4.16089L13.7106 6.54914Z" fill="#434343"/>
</svg>
