<svg width="43" height="44" viewBox="0 0 43 44" fill="none" xmlns="http://www.w3.org/2000/svg">
<rect y="0.141602" width="43" height="43" rx="21.5" fill="#7AB5AF"/>
<path d="M12.8461 31.1993V11.927C12.656 11.3961 13.3357 11.1065 13.6993 11.0281C17.6136 10.9491 25.8967 10.7911 27.715 10.7911C29.5332 10.7911 30.1456 11.5484 30.2245 11.927V27.6951L25.4422 32.4301C22.2855 32.4775 15.6596 32.5438 14.4096 32.4301C13.1595 32.3165 12.8464 31.5622 12.8461 31.1993Z" fill="white"/>
<path d="M25.851 32.9235C25.9606 32.9246 26.0664 32.8833 26.1463 32.8083L30.698 28.4871C30.7392 28.4467 30.7718 28.3985 30.7941 28.3454C30.8164 28.2922 30.8278 28.2351 30.8276 28.1774C30.8773 28.1003 30.9024 28.0099 30.8996 27.9181V12.0377C30.8996 11.5615 30.7109 11.1046 30.3748 10.7671C30.0387 10.4297 29.5826 10.2391 29.1063 10.2372H13.9317C13.6929 10.2334 13.4556 10.2772 13.2339 10.3659C13.0121 10.4547 12.8102 10.5867 12.6399 10.7543C12.4697 10.9219 12.3345 11.1216 12.2422 11.342C12.1499 11.5623 12.1024 11.7988 12.1024 12.0377V31.2455C12.1043 31.7224 12.2946 32.1793 12.6319 32.5165C12.9691 32.8538 13.426 33.0441 13.9029 33.046H25.5053C25.632 33.0507 25.7556 33.0069 25.851 32.9235ZM26.2759 31.4831V29.8339C26.2778 29.5066 26.4092 29.1933 26.6413 28.9626C26.8734 28.7318 27.1874 28.6023 27.5147 28.6023H29.3368L26.2759 31.4831ZM25.03 32.0161H13.9317C13.8267 32.0161 13.7228 31.9954 13.6258 31.9552C13.5288 31.915 13.4407 31.8562 13.3664 31.7819C13.2922 31.7077 13.2333 31.6196 13.1932 31.5226C13.153 31.4256 13.1323 31.3216 13.1323 31.2167V12.0377C13.1323 11.825 13.2163 11.621 13.366 11.4699C13.5157 11.3188 13.7191 11.233 13.9317 11.2311H29.1063C29.319 11.233 29.5223 11.3188 29.6721 11.4699C29.8218 11.621 29.9058 11.825 29.9058 12.0377V27.45H27.5723C26.8986 27.4519 26.2531 27.7204 25.7767 28.1967C25.3004 28.6731 25.0319 29.3186 25.03 29.9923V32.0161Z" fill="#161616"/>
<path d="M16.0207 16.8415H27.0182C27.15 16.8415 27.2764 16.7892 27.3696 16.696C27.4628 16.6028 27.5151 16.4764 27.5151 16.3446V15.4515C27.5151 15.3191 27.463 15.1919 27.37 15.0976C27.277 15.0032 27.1506 14.9493 27.0182 14.9474H16.0207C15.8883 14.9493 15.7619 15.0032 15.6689 15.0976C15.5759 15.1919 15.5238 15.3191 15.5238 15.4515V16.359C15.5276 16.4883 15.5816 16.611 15.6744 16.7011C15.7671 16.7912 15.8914 16.8416 16.0207 16.8415ZM16.1216 15.5524H26.9246V16.2726H16.1216V15.5524Z" fill="#161616"/>
<path d="M16.0207 19.9597H27.0182C27.15 19.9597 27.2764 19.9074 27.3696 19.8142C27.4628 19.721 27.5151 19.5946 27.5151 19.4628V18.5626C27.5151 18.4308 27.4628 18.3044 27.3696 18.2112C27.2764 18.118 27.15 18.0656 27.0182 18.0656H16.0207C15.8889 18.0656 15.7625 18.118 15.6693 18.2112C15.5762 18.3044 15.5238 18.4308 15.5238 18.5626V19.4628C15.5238 19.5946 15.5762 19.721 15.6693 19.8142C15.7625 19.9074 15.8889 19.9597 16.0207 19.9597ZM16.1216 18.6634H26.9246V19.3836H16.1216V18.6634Z" fill="#161616"/>
<path d="M27.5152 22.6029V21.7098C27.5152 21.578 27.4628 21.4516 27.3696 21.3584C27.2764 21.2652 27.15 21.2129 27.0182 21.2129H16.0208C15.889 21.2129 15.7626 21.2652 15.6694 21.3584C15.5762 21.4516 15.5239 21.578 15.5239 21.7098V22.6029C15.5229 22.6687 15.535 22.7341 15.5596 22.7953C15.5841 22.8564 15.6206 22.912 15.6668 22.9589C15.7131 23.0058 15.7682 23.0431 15.8289 23.0685C15.8897 23.0939 15.9549 23.107 16.0208 23.107H27.0182C27.0841 23.107 27.1493 23.0939 27.2101 23.0685C27.2709 23.0431 27.326 23.0058 27.3722 22.9589C27.4184 22.912 27.4549 22.8564 27.4794 22.7953C27.504 22.7341 27.5161 22.6687 27.5152 22.6029ZM26.9174 22.502H16.1144V21.7818H26.9174V22.502Z" fill="#161616"/>
</svg>
