<svg width="17" height="19" viewBox="0 0 17 19" fill="none" xmlns="http://www.w3.org/2000/svg">
<path d="M1.20324 6.93749H3.57004C3.93882 6.93749 3.68238 7.48613 3.68238 7.78295C3.68238 8.1508 4.27943 8.42292 4.64901 8.06555C4.7429 7.97476 4.79615 7.85535 4.77743 7.73001L4.69273 7.16565C4.67453 7.04424 4.77243 6.93659 4.89661 6.93749H7.26029C7.37251 6.93749 7.46352 7.02671 7.46352 7.13671V9.22634C7.86658 9.16819 8.15967 9.08281 8.49684 9.4178C9.14426 10.061 8.60402 11.1489 7.80681 11.034L7.46352 10.9844V13.0742C7.46352 13.1842 7.37251 13.2734 7.26029 13.2734H3.3184C2.04277 13.2734 1 12.2511 1 11.0008V7.1367C1 7.0267 1.09102 6.93749 1.20324 6.93749ZM3.335 7.33593H1.40647V11.0008C1.40647 12.0311 2.26728 12.875 3.31841 12.875H7.05706L7.05923 10.7251C7.07555 10.6162 7.17884 10.541 7.28986 10.557L7.9196 10.6439C8.2949 10.6439 8.57242 10.0587 8.20784 9.69639C7.94416 9.43435 7.59835 9.65596 7.2603 9.65596C7.14808 9.65596 7.05707 9.56674 7.05707 9.45674V7.33593H5.12857C5.18762 7.72911 5.27159 8.02174 4.93322 8.34885C4.27672 8.98356 3.16727 8.45367 3.28449 7.67245L3.335 7.33593Z" fill="#848586"/>
<path d="M7.46353 1.39844V3.28893C7.85275 3.23277 8.16199 3.13716 8.50445 3.48842C9.14335 4.14377 8.59406 5.2099 7.80682 5.09661L7.46353 5.04708V6.93749H9.62706C9.99575 6.93749 9.73951 7.4857 9.73951 7.78131C9.73951 8.14931 10.3253 8.42195 10.7026 8.06837C10.7991 7.9779 10.8537 7.85888 10.8344 7.73001L10.7497 7.16565C10.7315 7.04424 10.8294 6.93659 10.9536 6.93749H13.1142V3.27266C13.1142 2.24229 12.2533 1.39844 11.2022 1.39844L7.46353 1.39844ZM7.05706 3.51933V1.19922C7.05706 1.08922 7.14808 1 7.2603 1H11.2022C12.4778 1 13.5206 2.02229 13.5206 3.27266V7.13671C13.5206 7.24671 13.4296 7.33593 13.3174 7.33593H11.1855C11.2428 7.71758 11.3404 8.02053 10.9821 8.3563C10.3139 8.9825 9.22584 8.44437 9.34146 7.67244L9.39199 7.33593H7.26029C7.14808 7.33593 7.05706 7.24671 7.05706 7.13671L7.05922 4.78769C7.07555 4.67887 7.17884 4.60357 7.28986 4.61957L7.91784 4.7064C8.29317 4.7064 8.57146 4.13243 8.21072 3.76238C7.9496 3.49454 7.60071 3.71854 7.26029 3.71854C7.14808 3.71854 7.05706 3.62933 7.05706 3.51933Z" fill="#848586"/>
<path d="M7.46353 1.19922L7.46353 3.28893C7.85287 3.23277 8.16187 3.1372 8.50445 3.48842C9.14323 4.14334 8.59442 5.20994 7.80682 5.09661L7.46353 5.04708L7.46352 7.13671C7.46352 7.24671 7.37251 7.33593 7.26029 7.33593L5.12857 7.33593C5.1879 7.73103 5.27495 8.01833 4.93322 8.34885C4.27704 8.98348 3.16727 8.45391 3.28449 7.67245L3.335 7.33593L1.20324 7.33594C1.09102 7.33594 1 7.2467 1 7.1367L1.00001 3.27267C1.00001 2.02237 2.04273 1.00001 3.31841 1.00001L7.2603 1C7.37251 1 7.46353 1.08922 7.46353 1.19922ZM7.05706 3.51933L7.05706 1.39844H3.31841C2.26725 1.39844 1.40647 2.24229 1.40647 3.27266V6.93749L3.59969 6.93961C3.71071 6.95561 3.78752 7.05687 3.7712 7.16569L3.68238 7.78295C3.68238 8.15088 4.27955 8.42289 4.64901 8.06555C4.91633 7.80699 4.69034 7.46813 4.69034 7.13671C4.69034 7.02671 4.78136 6.93749 4.89357 6.93749H7.05706L7.05922 4.78769C7.07555 4.67887 7.17884 4.60357 7.28986 4.61957L7.91784 4.7064C8.29325 4.7064 8.57138 4.13219 8.21072 3.76238C7.94956 3.49458 7.60043 3.71854 7.26029 3.71854C7.14808 3.71854 7.05706 3.62945 7.05706 3.51933Z" fill="#848586"/>
<path d="M11.4058 10.671L13.4428 9.51808C13.5429 9.46145 13.6683 9.49478 13.7268 9.60227L15.6908 12.9368C16.3287 14.0199 15.9475 15.4155 14.8427 16.0407L11.429 17.9728C11.3289 18.0294 11.2034 17.996 11.145 17.8886L9.96851 15.8911C9.90602 15.7851 9.95011 15.6466 10.0866 15.6004C10.3618 15.4934 10.762 15.442 10.8432 15.1152C10.92 14.8062 10.7391 14.4957 10.4259 14.4112C10.0952 14.3219 9.83693 14.6457 9.60777 14.8235C9.50396 14.9041 9.35925 14.8656 9.29941 14.7551L8.12339 12.7584C8.0649 12.6591 8.0993 12.5364 8.21396 12.4778L10.2473 11.327C10.3555 11.2658 10.4963 11.3088 10.5435 11.4426L10.7512 11.9561C10.8993 12.3227 11.6019 12.2934 11.7551 11.7794C11.7922 11.655 11.7807 11.5239 11.6972 11.4204L11.336 10.9732C11.256 10.8741 11.2906 10.7259 11.4058 10.671ZM13.4702 9.96149L11.799 10.9074C12.0453 11.2125 12.2801 11.4339 12.1441 11.8899C11.8856 12.7575 10.6693 12.8296 10.3749 12.1023L10.2467 11.7854L8.57553 12.7312L9.5406 14.3697C9.86053 14.1214 10.0702 13.9035 10.5323 14.0283C11.0558 14.1694 11.3657 14.6909 11.2369 15.2086C11.1214 15.6731 10.8186 15.7428 10.4367 15.8912L11.4016 17.5293L14.6395 15.6968C15.5497 15.1817 15.8654 14.0282 15.3399 13.1361L13.4702 9.96149Z" fill="#848586"/>
<path d="M3.68238 7.78295C3.68238 7.48613 3.93882 6.93749 3.57004 6.93749H1.20324C1.09102 6.93749 1 7.0267 1 7.1367M3.68238 7.78295C3.68238 8.1508 4.27943 8.42292 4.64901 8.06555M3.68238 7.78295L3.7712 7.16569C3.78752 7.05687 3.71071 6.95561 3.59969 6.93961L1.40647 6.93749V3.27266C1.40647 2.24229 2.26725 1.39844 3.31841 1.39844H7.05706L7.05706 3.51933M3.68238 7.78295C3.68238 8.15088 4.27955 8.42289 4.64901 8.06555M4.64901 8.06555C4.7429 7.97476 4.79615 7.85535 4.77743 7.73001L4.69273 7.16565C4.67453 7.04424 4.77243 6.93659 4.89661 6.93749H7.26029C7.3725 6.93749 7.46352 7.02671 7.46352 7.13671M4.64901 8.06555C4.91633 7.80699 4.69034 7.46813 4.69034 7.13671C4.69034 7.02671 4.78136 6.93749 4.89357 6.93749H7.05706L7.05922 4.78769M7.46352 7.13671V9.22634C7.86658 9.16819 8.15967 9.08281 8.49684 9.4178C9.14426 10.061 8.60402 11.1489 7.80681 11.034L7.46352 10.9844V13.0742C7.46352 13.1842 7.37251 13.2734 7.26029 13.2734H3.3184C2.04277 13.2734 1 12.2511 1 11.0008V7.1367M7.46352 7.13671L7.46353 5.04708M7.46352 7.13671C7.46352 7.24671 7.37251 7.33593 7.26029 7.33593M1 7.1367C1 7.2467 1.09102 7.33594 1.20324 7.33594L3.335 7.33593M1 7.1367L1.00001 3.27267C1.00001 2.02237 2.04273 1.00001 3.31841 1.00001L7.2603 1M3.335 7.33593H1.40647V11.0008C1.40647 12.0311 2.26728 12.875 3.31841 12.875H7.05706L7.05922 10.7251C7.07555 10.6162 7.17884 10.541 7.28986 10.557L7.9196 10.6439C8.2949 10.6439 8.57242 10.0587 8.20784 9.69639C7.94416 9.43435 7.59835 9.65596 7.2603 9.65596C7.14808 9.65596 7.05707 9.56674 7.05707 9.45674V7.33593H5.12857M3.335 7.33593L3.28449 7.67245M5.12857 7.33593C5.18762 7.72911 5.27159 8.02174 4.93322 8.34885M5.12857 7.33593L7.26029 7.33593M5.12857 7.33593C5.1879 7.73103 5.27495 8.01833 4.93322 8.34885M4.93322 8.34885C4.27672 8.98356 3.16727 8.45367 3.28449 7.67245M4.93322 8.34885C4.27704 8.98348 3.16727 8.45391 3.28449 7.67245M7.46353 3.28893V1.39844L11.2022 1.39844C12.2533 1.39844 13.1142 2.24229 13.1142 3.27266V6.93749H10.9536C10.8294 6.93659 10.7315 7.04424 10.7497 7.16565L10.8344 7.73001C10.8537 7.85888 10.7991 7.9779 10.7026 8.06837C10.3253 8.42195 9.73951 8.14931 9.73951 7.78131C9.73951 7.4857 9.99575 6.93749 9.62706 6.93749H7.46353V5.04708M7.46353 3.28893C7.85275 3.23277 8.16199 3.13716 8.50445 3.48842M7.46353 3.28893L7.46353 1.19922C7.46353 1.08922 7.37251 1 7.2603 1M7.46353 3.28893C7.85287 3.23277 8.16187 3.1372 8.50445 3.48842M8.50445 3.48842C9.14335 4.14377 8.59406 5.2099 7.80682 5.09661M8.50445 3.48842C9.14323 4.14334 8.59442 5.20994 7.80682 5.09661M7.80682 5.09661L7.46353 5.04708M7.05706 3.51933V1.19922C7.05706 1.08922 7.14808 1 7.2603 1M7.05706 3.51933C7.05706 3.62933 7.14808 3.71854 7.26029 3.71854M7.05706 3.51933C7.05706 3.62945 7.14808 3.71854 7.26029 3.71854M7.2603 1H11.2022C12.4778 1 13.5206 2.02229 13.5206 3.27266V7.13671C13.5206 7.24671 13.4296 7.33593 13.3174 7.33593H11.1855C11.2428 7.71758 11.3404 8.02053 10.9821 8.3563C10.3139 8.9825 9.22584 8.44437 9.34146 7.67244L9.39199 7.33593H7.26029M7.26029 7.33593C7.14808 7.33593 7.05706 7.24671 7.05706 7.13671L7.05922 4.78769M7.05922 4.78769C7.07555 4.67887 7.17884 4.60357 7.28986 4.61957L7.91784 4.7064M7.91784 4.7064C8.29317 4.7064 8.57146 4.13243 8.21072 3.76238M7.91784 4.7064C8.29325 4.7064 8.57138 4.13219 8.21072 3.76238M8.21072 3.76238C7.9496 3.49454 7.60071 3.71854 7.26029 3.71854M8.21072 3.76238C7.94956 3.49458 7.60043 3.71854 7.26029 3.71854M11.4058 10.671L13.4428 9.51808C13.5429 9.46145 13.6683 9.49478 13.7268 9.60227L15.6908 12.9368C16.3287 14.0199 15.9475 15.4155 14.8427 16.0407L11.429 17.9728C11.3289 18.0294 11.2034 17.996 11.145 17.8886L9.96851 15.8911C9.90602 15.7851 9.95011 15.6466 10.0866 15.6004C10.3619 15.4934 10.762 15.442 10.8432 15.1152C10.92 14.8062 10.7391 14.4957 10.4259 14.4112C10.0952 14.3219 9.83693 14.6457 9.60777 14.8235C9.50396 14.9041 9.35925 14.8656 9.29941 14.7551L8.12339 12.7584C8.0649 12.6591 8.0993 12.5364 8.21396 12.4778L10.2473 11.327C10.3555 11.2658 10.4963 11.3088 10.5435 11.4426L10.7512 11.9561C10.8993 12.3227 11.6019 12.2934 11.7551 11.7794C11.7922 11.655 11.7807 11.5239 11.6972 11.4204L11.336 10.9732C11.256 10.8741 11.2906 10.7259 11.4058 10.671ZM13.4702 9.96149L11.799 10.9074C12.0453 11.2125 12.2801 11.4339 12.1441 11.8899C11.8856 12.7575 10.6693 12.8296 10.3749 12.1023L10.2467 11.7854L8.57553 12.7312L9.5406 14.3697C9.86053 14.1214 10.0702 13.9035 10.5323 14.0283C11.0558 14.1694 11.3657 14.6909 11.2369 15.2086C11.1214 15.6731 10.8186 15.7428 10.4367 15.8912L11.4016 17.5293L14.6395 15.6968C15.5497 15.1817 15.8654 14.0282 15.3399 13.1361L13.4702 9.96149Z" stroke="#848586" stroke-width="0.6"/>
</svg>
