<svg width="18" height="18" viewBox="0 0 18 18" fill="none" xmlns="http://www.w3.org/2000/svg">
<path fill-rule="evenodd" clip-rule="evenodd" d="M8.84126 17.4791C4.14997 17.4791 0.346924 13.678 0.346924 8.98907C0.346924 4.30015 4.14997 0.499023 8.84126 0.499023C13.5326 0.499023 17.3356 4.30015 17.3356 8.98907C17.3356 13.678 13.5326 17.4791 8.84126 17.4791ZM14.5554 12.9441C15.3346 11.8216 15.7912 10.4586 15.7912 8.98907C15.7912 5.15268 12.6796 2.04267 8.84124 2.04267C5.00291 2.04267 1.89132 5.15268 1.89132 8.98907C1.89132 10.4585 2.3478 11.8213 3.12674 12.9437C3.98895 11.805 6.00635 11.3112 8.77568 11.3036C7.07792 11.2732 5.75241 10.0569 5.75241 7.44509C5.75241 5.71293 6.97181 4.3578 8.84126 4.3578C10.7055 4.3578 11.9301 5.84091 11.9301 7.59945C11.9301 10.0982 10.5893 11.2738 8.9072 11.3036C11.6763 11.3113 13.6935 11.8053 14.5554 12.9441ZM13.4472 14.191C13.2223 13.3781 11.5984 12.8472 8.84094 12.8472C6.08394 12.8472 4.46015 13.3779 4.23477 14.1906C5.46109 15.2763 7.07414 15.9355 8.84124 15.9355C10.6081 15.9355 12.221 15.2765 13.4472 14.191ZM7.29672 7.44475C7.29672 9.19621 7.92855 9.76022 8.84114 9.76022C9.75058 9.76022 10.3856 9.2187 10.3856 7.59911C10.3856 6.63466 9.77989 5.9011 8.84114 5.9011C7.86332 5.9011 7.29672 6.53078 7.29672 7.44475Z" fill="#434343"/>
</svg>
