<svg width="59" height="59" viewBox="0 0 59 59" fill="none" xmlns="http://www.w3.org/2000/svg">
<path d="M54.0564 22.0884C51.4071 19.563 46.0189 19.1132 42.6114 19.0556C41.8301 19.044 37.8402 19.1478 34.2971 19.4447C32.87 19.5168 31.4488 19.6148 30.0275 19.7965C29.8142 19.8253 29.2693 20.0329 28.7331 20.2981C29.0877 20.1193 29.2953 18.2455 29.3673 17.8592C29.5115 17.0692 29.5864 16.2678 29.6037 15.4635C29.6354 13.7251 29.4192 11.9781 29.0329 10.28C28.4477 7.70272 27.1706 4.62091 25.4206 2.61153C24.2992 1.32576 22.7914 0.230252 21.0213 0.270612C19.3464 0.302324 17.7204 1.28828 17.1929 2.92288C16.9132 3.80505 16.9622 4.75351 17.017 5.66739C17.1929 8.56182 17.1467 11.6119 16.6076 14.5006C15.5842 17.0318 14.4772 19.5572 13.6556 22.1374C13.6325 22.2037 13.6152 22.2729 13.595 22.3449C13.2606 21.1831 12.7301 20.4711 11.1273 20.1712C9.14959 19.8051 7.01336 20.9496 5.51714 22.0912C1.62235 25.0549 0.864149 32.4149 0.570094 36.8517C0.229912 41.9457 1.29082 49.2452 4.71281 53.2669C6.81733 55.7346 12.4476 55.8932 14.4339 53.1689C15.7485 54.988 17.8876 55.5963 20.021 56.0373C23.0567 56.6629 26.1414 56.9772 29.2434 57.0608C31.4891 57.1242 33.9511 57.2597 36.0701 56.4179C36.1508 56.5361 36.2373 56.6456 36.3468 56.7523C37.6153 57.9833 39.1 58.7963 40.9306 58.7271C44.1133 58.5887 48.0773 57.1588 48.478 53.4917C48.4838 53.4312 48.478 53.3764 48.4636 53.3303C49.6283 52.7162 50.6662 51.9062 51.4359 50.9029C52.6381 49.326 54.0939 46.5728 52.7707 44.7767C53.5202 44.2232 54.1977 43.5659 54.7714 42.7847C56.4521 40.5043 57.9397 37.4081 55.8006 35.0931C56.8356 34.2023 58.0579 33.1414 58.3289 31.994C59.1765 28.4077 56.5473 24.4668 54.0564 22.0884ZM41.7897 57.3635C40.2647 57.4932 39.0539 57.1876 37.8315 56.2507C36.8311 55.4867 36.8859 54.5613 36.8917 53.5379C38.927 54.6276 41.3573 54.7631 43.7155 54.6305C44.8917 54.5613 46.1256 54.299 47.2903 53.8463C46.0708 56.0258 44.4218 57.1357 41.7897 57.3635ZM43.8193 53.3678C41.8041 53.5984 39.7313 53.3534 37.8661 52.5894C37.1166 52.2809 36.491 51.788 35.9201 51.2287C34.9601 50.0957 34.9313 48.856 35.8279 47.504C36.1652 47.2013 36.3122 46.8438 36.292 46.4402C36.3093 46.4431 36.3295 46.4517 36.3468 46.4546C36.416 46.4719 36.4967 46.4402 36.5515 46.3912C38.829 47.4002 41.7609 47.4146 43.975 47.3656C46.6561 47.3051 49.4784 46.7659 51.7991 45.4081C53.7653 49.8016 47.2932 52.9526 43.8193 53.3678ZM53.6442 42.2312C51.5051 45.0276 48.3916 45.7166 45.0445 46.0798C42.6114 46.3479 39.7198 46.1519 37.3702 45.3908C33.6513 44.1858 34.0261 40.3227 36.3699 37.9875C40.6856 39.6942 48.1638 38.6333 50.8074 38.0019C52.3498 37.6272 53.6211 37.0794 54.7599 36.0127C56.0082 38.2124 55.2817 40.0834 53.6442 42.2312ZM54.5062 34.2484C51.9145 36.7681 48.6135 37.0362 45.1425 37.3591C41.8935 37.656 38.6733 37.3418 35.7702 35.8023C34.8246 35.2978 34.4989 34.5482 34.5133 33.7324C34.2481 31.9796 35.7904 29.7771 37.056 28.8459C38.5263 27.7561 40.5587 27.4707 42.3317 27.3064C44.5227 27.1017 46.7051 27.1536 48.8961 27.2545C48.8413 27.1392 48.726 27.0441 48.5386 27.021C47.3912 26.8653 46.2524 26.6866 45.1137 26.5655C45.1022 26.5309 45.0935 26.4963 45.0733 26.4646C45.1108 26.528 45.0964 26.4732 45.2117 26.3868C45.6038 26.0956 46.0852 25.9169 46.5407 25.7439C47.2153 25.4902 47.9072 25.2826 48.5934 25.0722C47.8553 25.0462 47.1231 25.0635 46.3966 25.1241C46.0939 25.199 45.7883 25.2826 45.4885 25.3979C45.0128 25.568 44.4622 25.8419 44.2488 26.3349C44.2344 26.381 44.2171 26.43 44.2085 26.479C42.4499 26.3435 40.6913 26.3781 38.9357 26.8509C36.3353 27.5601 33.5908 30.4718 33.2477 33.1875C32.9594 35.4708 34.0636 36.9007 35.8596 37.7627C33.5504 38.9533 32.5068 41.6171 33.758 43.9378C34.2942 44.9324 35.0956 45.6387 36.047 46.149C34.5479 47.7836 33.1382 50.1908 35.0293 52.1397C35.309 52.428 35.6001 52.6845 35.9057 52.9123C35.8884 52.9498 35.8683 52.9872 35.8481 53.0218C35.776 53.1429 35.7587 53.3015 35.8308 53.4254C35.7501 53.9934 35.6492 54.5844 35.6809 55.1523C31.1461 55.4723 26.8563 55.5963 22.2812 54.8899C19.2772 54.42 16.7633 53.9501 14.9183 51.3007C14.2235 50.2975 13.8112 49.2222 13.4278 48.1267C13.4365 48.0142 13.4047 47.9076 13.324 47.824C13.2808 47.7 13.2375 47.5674 13.1914 47.4377C12.7647 46.8726 12.3784 46.2759 12.021 45.6676C12.0123 45.6993 12.0065 45.731 12.0123 45.7685C12.1017 46.2384 12.1824 46.691 12.2631 47.1321C11.4674 46.2096 10.7669 45.3476 10.2422 44.0935C9.42635 42.1562 9.36869 40.1209 9.35139 38.051C9.34562 37.2697 9.36004 36.4106 9.41481 35.5169C9.46671 34.9172 9.52725 34.3176 9.58202 33.7208C9.87896 31.4203 10.5074 29.0909 11.7874 27.4304C12.119 27.1479 12.5082 26.9028 12.955 26.7068C12.9608 26.8048 12.955 26.9086 12.955 27.0008C12.9002 27.9089 12.9031 28.8401 12.9896 29.754C13.0473 29.4513 13.1626 31.2906 13.9467 31.7461C13.3471 29.7367 13.3615 27.5716 13.8487 25.4786C14.7309 21.6761 16.8902 18.2887 17.5907 14.4256C17.9885 12.2144 17.9049 9.99462 17.8502 7.75749C17.8156 6.23532 17.853 4.76216 18.5075 3.36108C18.7323 2.88828 19.1676 2.47315 19.6606 2.20216C19.8105 2.06954 19.9806 1.97153 20.1767 1.91675C20.5889 1.61405 21.177 1.57368 21.9179 1.93693C21.9266 1.93981 21.9295 1.94558 21.9381 1.94846C23.0596 2.26846 23.9821 3.13622 24.6942 4.14235C25.6628 5.25803 26.4181 6.58127 26.937 7.93623C28.0902 10.9575 28.3698 14.3305 27.776 17.5103C27.43 19.3813 26.8333 21.2927 26.8534 23.2069C26.8563 23.6682 26.8996 24.115 26.9803 24.5561C27.2657 25.4614 27.7385 26.3032 28.2805 27.1478C28.3093 27.1997 28.318 27.2632 28.3007 27.3151C28.7879 28.0041 29.3039 28.67 29.7536 29.3043C33.2016 34.1792 31.9014 40.9857 28.736 45.7425C28.9926 45.5494 29.229 45.3447 29.4452 45.1141C30.3072 44.2059 30.9385 43.1421 31.4574 42.0178C32.2704 39.4117 32.501 36.6066 32.3655 33.9284C32.2156 30.9417 31.3363 28.9266 29.6181 26.5251C29.2953 26.0696 29.007 25.6055 28.7417 25.1356C28.3756 24.0314 28.1998 22.9158 28.3843 21.6934C29.3126 21.3359 30.1572 21.0476 31.2614 20.9035C31.2787 20.8977 31.2931 20.8977 31.3104 20.8977C32.3944 20.843 33.4841 20.7276 34.5104 20.6584C37.8142 20.4336 41.0344 20.2491 44.3497 20.5431C47.4604 20.8228 51.2053 21.5291 53.5346 23.8008C54.6907 24.928 55.5527 26.5251 56.21 27.9868C57.5332 30.9533 56.3512 32.461 54.5062 34.2484Z" fill="#434343"/>
</svg>
