<svg width="18" height="18" viewBox="0 0 18 18" fill="none" xmlns="http://www.w3.org/2000/svg">
<path fill-rule="evenodd" clip-rule="evenodd" d="M5.83928 4.60521H3.61187C5.10192 2.90054 6.73399 2.28974 8.92657 2.28974C12.763 2.28974 15.873 5.39975 15.873 9.23614C15.873 13.0725 12.763 16.1825 8.92657 16.1825C5.09018 16.1825 1.98017 13.0725 1.98017 9.23614H0.436523C0.436523 13.9251 4.23765 17.7262 8.92657 17.7262C13.6155 17.7262 17.4166 13.9251 17.4166 9.23614C17.4166 4.54722 13.6155 0.746094 8.92657 0.746094C6.44642 0.746094 4.47862 1.44888 2.75199 3.25949V1.51113H1.20835V6.14885H5.83928V4.60521ZM12.7857 8.46432H9.69839V4.60521H8.15475V10.008H12.7857V8.46432Z" fill="#434343"/>
</svg>
