<svg width="18" height="18" viewBox="0 0 18 18" fill="none" xmlns="http://www.w3.org/2000/svg">
<path fill-rule="evenodd" clip-rule="evenodd" d="M8.69024 17.4645C4.00132 17.4645 0.200195 13.6633 0.200195 8.97442C0.200195 4.2855 4.00132 0.484375 8.69024 0.484375C13.3792 0.484375 17.1803 4.2855 17.1803 8.97442C17.1803 13.6633 13.3792 17.4645 8.69024 17.4645ZM8.69024 15.9208C12.5266 15.9208 15.6366 12.8108 15.6366 8.97442C15.6366 5.13803 12.5266 2.02802 8.69024 2.02802C4.85385 2.02802 1.74384 5.13803 1.74384 8.97442C1.74384 12.8108 4.85385 15.9208 8.69024 15.9208ZM12.5494 8.20226H9.46209V4.34315H7.91845V9.74591H12.5494V8.20226Z" fill="#434343"/>
</svg>
