<svg width="71" height="71" viewBox="0 0 71 71" fill="none" xmlns="http://www.w3.org/2000/svg">
<rect x="0.5" y="0.5" width="70" height="70" rx="35" fill="#C86162"/>
<path fill-rule="evenodd" clip-rule="evenodd" d="M21.2733 21.2733C21.9567 20.5899 23.0648 20.5899 23.7482 21.2733L35.5002 33.0253L47.2523 21.2733C47.9357 20.5899 49.0437 20.5899 49.7271 21.2733C50.4105 21.9567 50.4105 23.0648 49.7271 23.7482L37.9751 35.5002L49.7268 47.2519C50.4102 47.9353 50.4102 49.0434 49.7268 49.7268C49.0434 50.4102 47.9353 50.4102 47.2519 49.7268L35.5002 37.9751L23.7485 49.7268C23.0651 50.4102 21.9571 50.4102 21.2736 49.7268C20.5902 49.0434 20.5902 47.9353 21.2736 47.2519L33.0253 35.5002L21.2733 23.7482C20.5899 23.0648 20.5899 21.9567 21.2733 21.2733Z" fill="white"/>
</svg>
