<svg width="16" height="17" viewBox="0 0 16 17" fill="none" xmlns="http://www.w3.org/2000/svg">
<path fill-rule="evenodd" clip-rule="evenodd" d="M6.86066 5.70401C7.26055 5.16512 7.40394 4.59717 6.95168 4.09585C5.93677 2.67571 5.25422 1.7975 4.82609 1.37458C4.01215 0.570545 2.67322 0.679304 1.9683 1.37389C1.58967 1.74696 1.46149 1.87508 1.07273 2.26995C-1.09273 4.43657 0.22788 9.01675 3.73855 12.5309C7.24842 16.0442 11.8282 17.3655 13.9982 15.1943C14.3569 14.8485 14.6606 14.5446 14.9002 14.2914C15.591 13.5612 15.6959 12.2813 14.8956 11.4499C14.4854 11.0236 13.6479 10.374 12.168 9.31539C11.7148 8.91011 11.1774 8.99795 10.6847 9.32119C10.4477 9.47667 10.2752 9.63396 9.94952 9.95996L9.35812 10.5517C9.28022 10.6296 8.22252 10.0999 7.19579 9.07219C6.1685 8.04389 5.63916 6.98613 5.71669 6.90861L6.30851 6.31647C6.41183 6.21304 6.46123 6.16296 6.52459 6.09638C6.65657 5.95766 6.76585 5.83178 6.86066 5.70401ZM10.4491 11.643L11.0406 11.0511C11.2199 10.8717 11.336 10.7614 11.4305 10.6854C12.7269 11.6163 13.4777 12.2017 13.7844 12.5204C13.9685 12.7117 13.9399 13.0608 13.7799 13.2299C13.5584 13.4641 13.2706 13.752 12.9174 14.0926C11.5142 15.4964 7.81733 14.4298 4.82979 11.4394C1.8413 8.44794 0.775214 4.7505 2.16782 3.35713C2.55502 2.96388 2.67769 2.84126 3.05091 2.47352C3.19085 2.33564 3.57202 2.30467 3.74225 2.47283C4.07187 2.79844 4.6833 3.58134 5.58276 4.83427C5.5362 4.89208 5.47804 4.95741 5.40727 5.03179C5.35532 5.08639 5.31204 5.13026 5.21743 5.22496L4.6262 5.81652C3.6204 6.82223 4.47698 8.53392 6.10472 10.1633C7.73134 11.7915 9.44366 12.649 10.4491 11.643Z" fill="#434343"/>
</svg>
